<?xml version="1.0" standalone="no"?>
<!DOCTYPE svg PUBLIC "-//W3C//DTD SVG 20010904//EN"
 "http://www.w3.org/TR/2001/REC-SVG-20010904/DTD/svg10.dtd">
<svg version="1.0" xmlns="http://www.w3.org/2000/svg"
 width="186.000000pt" height="123.000000pt" viewBox="0 0 186.000000 123.000000"
 preserveAspectRatio="xMidYMid meet">

<g transform="translate(0.000000,123.000000) scale(0.100000,-0.100000)"
fill="#000000" stroke="none">
<path d="M421 992 c-61 -24 -139 -97 -167 -157 -41 -87 -28 -197 38 -330 34
-67 192 -308 215 -326 30 -25 61 4 153 144 125 188 162 269 168 362 2 41 2 85
-2 99 -6 23 -11 26 -55 26 l-48 0 5 -73 c4 -65 1 -81 -26 -146 -17 -39 -61
-117 -97 -172 -54 -79 -70 -97 -81 -88 -24 20 -124 176 -155 242 -56 121 -47
221 26 286 56 49 90 54 321 49 269 -7 300 -18 385 -138 53 -76 110 -112 229
-145 180 -50 230 -85 230 -166 0 -42 -15 -59 -52 -59 -20 0 -31 8 -42 28 -65
126 -245 131 -311 9 l-20 -37 -147 0 -147 0 -31 -44 c-16 -25 -30 -47 -30 -50
0 -3 78 -6 173 -6 l173 0 32 -46 c80 -113 234 -107 304 12 17 28 26 34 55 34
85 0 143 58 143 145 0 77 -17 123 -63 169 -44 44 -82 60 -252 111 -95 29 -101
33 -209 160 -87 101 -178 125 -473 124 -160 0 -207 -4 -242 -17z m942 -594
c26 -31 22 -82 -9 -107 -15 -12 -37 -21 -49 -21 -33 0 -75 44 -75 77 1 72 87
105 133 51z"/>
</g>
</svg>
